Coordinates
version=1
nRows=24
nColumns=22
inDegrees=yes

Units are S.I. units (second, meters, Newtons, ...)
If the header above contains a line with 'inDegrees', this indicates whether rotational values are in degrees (yes) or radians (no).

endheader
time	pelvis_tilt	pelvis_list	pelvis_rotation	pelvis_tx	pelvis_ty	pelvis_tz	hip_flexion_r	hip_adduction_r	hip_rotation_r	knee_angle_r	ankle_angle_r	subtalar_angle_r	hip_flexion_l	hip_adduction_l	hip_rotation_l	knee_angle_l	ankle_angle_l	subtalar_angle_l	lumbar_extension	lumbar_bending	lumbar_rotation
      0.01000000	     -2.66301697	     -5.48462671	     -0.11459500	      1.05752646	      1.01058251	      0.18960646	      2.32533884	      3.56814630	     -4.31995543	    -13.03003198	      9.21420574	      0.72942708	      1.19839514	     -7.78969757	     -7.51554343	    -13.54504111	     13.41272688	      1.58855239	     -1.36201428	      0.75055855	     -0.86160009
      0.02000000	     -2.63455563	     -5.50569290	     -0.09914293	      1.05779833	      1.01059877	      0.18942164	      2.30171428	      3.57959611	     -4.31700568	    -13.07254310	      9.21101570	      0.76271452	      1.16582027	     -7.80360632	     -7.48056046	    -13.57168573	     13.43558735	      1.62189448	     -1.39547788	      0.78032613	     -0.90534480
      0.03000000	     -2.62611610	     -5.51555372	     -0.09418990	      1.05810855	      1.01059506	      0.18921635	      2.31654802	      3.57668571	     -4.29968594	    -13.15101728	      9.20514174	      0.77020321	      1.13540846	     -7.80207166	     -7.45975357	    -13.56696542	     13.44423236	      1.62289203	     -1.40187804	      0.79985573	     -0.94951093
      0.04000000	     -2.61572661	     -5.53030703	     -0.08773741	      1.05842469	      1.01059579	      0.18899262	      2.34866990	      3.57616159	     -4.30743137	    -13.26477903	      9.21589131	      0.78675211	      1.09847177	     -7.80264729	     -7.40228905	    -13.55830084	     13.46046740	      1.61666838	     -1.41109790	      0.82548283	     -0.99188026
      0.05000000	     -2.60846572	     -5.54309408	     -0.08446414	      1.05876162	      1.01061041	      0.18877051	      2.38690588	      3.57499172	     -4.28425018	    -13.38387555	      9.20381910	      0.79301290	      1.05456069	     -7.80358354	     -7.38445635	    -13.53102680	     13.46595373	      1.61465003	     -1.41169340	      0.85090872	     -1.05320525
      0.06000000	     -2.61076563	     -5.55958113	     -0.08299473	      1.05906574	      1.01062767	      0.18854288	      2.46492414	      3.57391723	     -4.29475463	    -13.55420622	      9.20785833	      0.81216108	      1.00992185	     -7.80415983	     -7.32857562	    -13.48177965	     13.46466389	      1.60793391	     -1.40299486	      0.87641880	     -1.07928920
      0.07000000	     -2.62008540	     -5.57386050	     -0.08698025	      1.05935347	      1.01065885	      0.18830842	      2.55741374	      3.56982655	     -4.28697402	    -13.73369300	      9.19704541	      0.83329801	      0.96380407	     -7.80151696	     -7.29769473	    -13.41460311	     13.45244515	      1.60442112	     -1.38417749	      0.90484307	     -1.11970955
      0.08000000	     -2.64008895	     -5.58997682	     -0.09462384	      1.05960777	      1.01070242	      0.18811199	      2.67263400	      3.56956768	     -4.27582355	    -13.92893295	      9.17935370	      0.86267082	      0.91977849	     -7.80248325	     -7.27636548	    -13.32611977	     13.42622092	      1.60410754	     -1.35199241	      0.92611123	     -1.14586332
      0.09000000	     -2.69025455	     -5.59741023	     -0.11344349	      1.05982533	      1.01072729	      0.18792250	      2.82788329	      3.55866920	     -4.24276369	    -14.13483172	      9.16315321	      0.92755082	      0.90379766	     -7.79369684	     -7.27852876	    -13.22867713	     13.37955416	      1.60438886	     -1.28301439	      0.94200023	     -1.17899277
      0.10000000	     -2.69692038	     -5.63369212	     -0.12410539	      1.06002373	      1.01083640	      0.18772606	      2.93543014	      3.57790328	     -4.23166837	    -14.33441967	      9.11628245	      0.95535050	      0.82801295	     -7.81344948	     -7.26876259	    -13.10305850	     13.35302953	      1.61354565	     -1.26569547	      0.98960115	     -1.20063919
      0.11000000	     -2.71503380	     -5.66884224	     -0.13836295	      1.06019571	      1.01095568	      0.18754934	      3.05260533	      3.59636744	     -4.21067216	    -14.52484213	      9.05889863	      1.00234103	      0.75570630	     -7.83214512	     -7.27046285	    -12.95746820	     13.29950665	      1.62834256	     -1.23296092	      1.03388263	     -1.21987076
      0.12000000	     -2.73453304	     -5.70696050	     -0.14979914	      1.06034828	      1.01108977	      0.18737281	      3.16477467	      3.61759078	     -4.18374115	    -14.70175848	      8.99688171	      1.06495392	      0.67881674	     -7.85366124	     -7.27935383	    -12.79662421	     13.23947897	      1.64595139	     -1.19712904	      1.08245152	     -1.24577219
      0.13000000	     -2.75889777	     -5.74278252	     -0.16267557	      1.06049390	      1.01123635	      0.18720946	      3.26614734	      3.63768048	     -4.12235671	    -14.84953739	      8.92905323	      1.21433853	      0.60271414	     -7.87330391	     -7.30730411	    -12.62609823	     13.15324356	      1.67362888	     -1.15136059	      1.12861517	     -1.28282000
      0.14000000	     -2.76623293	     -5.78815939	     -0.15796191	      1.06064026	      1.01139169	      0.18701957	      3.34092908	      3.66428145	     -4.11123363	    -14.98282830	      8.87705609	      1.27663694	      0.49984908	     -7.90128146	     -7.31488041	    -12.43311668	     13.10623927	      1.69192502	     -1.12377413	      1.18604601	     -1.31747323
      0.15000000	     -2.74928248	     -5.82198202	     -0.15080699	      1.06079882	      1.01159580	      0.18684073	      3.35711801	      3.68201930	     -4.04437402	    -15.05782361	      8.81151535	      1.46563893	      0.36167655	     -7.91691911	     -7.34368259	    -12.22160300	     13.00913927	      1.72833001	     -1.12063666	      1.23105399	     -1.37448359
      0.16000000	     -2.73419831	     -5.84951763	     -0.13470035	      1.06096568	      1.01177054	      0.18667132	      3.36226938	      3.69304590	     -4.00037792	    -15.11253509	      8.76784660	      1.59360611	      0.22081263	     -7.92644184	     -7.36545156	    -11.99896410	     12.92970564	      1.75891797	     -1.11062921	      1.26582509	     -1.43301899
      0.17000000	     -2.74239508	     -5.86997881	     -0.11699854	      1.06113123	      1.01188306	      0.18653799	      3.37483786	      3.69961571	     -3.97192538	    -15.13565350	      8.73776080	      1.65831087	      0.10483002	     -7.93147082	     -7.38965850	    -11.77456079	     12.86592399	      1.78162944	     -1.06845000	      1.28926029	     -1.48802064
      0.18000000	     -2.73656222	     -5.86737407	     -0.10124733	      1.06128344	      1.01199542	      0.18645026	      3.35020825	      3.68638499	     -3.92624244	    -15.11808780	      8.71434672	      1.75191560	     -0.02536424	     -7.91416209	     -7.42420877	    -11.54961389	     12.77688626	      1.81231631	     -1.04386230	      1.28192203	     -1.55371834
      0.19000000	     -2.70644420	     -5.83904042	     -0.09321144	      1.06138031	      1.01210232	      0.18641028	      3.29792700	      3.64767083	     -3.88482595	    -15.09545031	      8.72298257	      1.88007752	     -0.17065113	     -7.87248863	     -7.47134875	    -11.34409018	     12.69310786	      1.85091183	     -1.05610213	      1.24383966	     -1.62376938
      0.20000000	     -2.73996684	     -5.82928930	     -0.09305643	      1.06142752	      1.01206010	      0.18644981	      3.29745422	      3.63399130	     -3.89830700	    -15.03411802	      8.73848591	      1.89769586	     -0.21879053	     -7.86033233	     -7.53178202	    -11.19106264	     12.69091525	      1.85907723	     -0.99544261	      1.22266857	     -1.69093647
      0.21000000	     -2.76608056	     -5.76160533	     -0.11197734	      1.06142603	      1.01200835	      0.18657326	      3.28243109	      3.56291528	     -3.91053479	    -14.95776582	      8.78543261	      1.94373496	     -0.27911030	     -7.78710342	     -7.57243633	    -11.02969271	     12.59562691	      1.90028931	     -0.94939772	      1.12332363	     -1.71419945
      0.22000000	     -2.80544573	     -5.69577275	     -0.14373037	      1.06136370	      1.01187716	      0.18676864	      3.28056599	      3.49870463	     -3.95497174	    -14.87237153	      8.85757120	      1.94767315	     -0.29884052	     -7.72339125	     -7.63469288	    -10.91971292	     12.57355834	      1.92661797	     -0.89447388	      1.02532182	     -1.74546134
      0.23000000	     -2.85520604	     -5.62071129	     -0.18353532	      1.06125232	      1.01168804	      0.18701535	      3.28777940	      3.43001792	     -4.00425305	    -14.77916446	      8.94124442	      1.91509277	     -0.29367543	     -7.65407358	     -7.69264803	    -10.83276636	     12.55959740	      1.94969827	     -0.83337023	      0.91529395	     -1.76610317
      0.24000000	     -2.90367065	     -5.53284863	     -0.23108286	      1.06111766	      1.01146452	      0.18730441	      3.29348994	      3.35227229	     -4.05695629	    -14.68383029	      9.04506398	      1.84743424	     -0.27920638	     -7.57450801	     -7.74960313	    -10.76889905	     12.55672229	      1.97010213	     -0.77512660	      0.78865338	     -1.77269341
